<svg width="318" height="244" viewBox="0 0 318 244" fill="none" xmlns="http://www.w3.org/2000/svg">
<path d="M250.666 241.334C250.666 236.001 253.867 236.134 256 241.334L256.973 243.653L250.666 243.604V241.334ZM225.333 227.733C225.333 226 226.267 226.401 236.399 233.334C241.333 236.667 245.333 240.133 245.333 240.934C245.333 241.867 245.066 242.667 244.666 242.667C243.197 242.665 225.333 228.933 225.333 227.733ZM271.333 240C272.4 240 273.333 240.534 273.333 241.334C273.333 242.001 272.4 242.667 271.333 242.667C270.267 242.667 269.333 242.001 269.333 241.334C269.333 240.534 270.266 240 271.333 240ZM312.267 231.601C314.933 225.601 317.333 223.334 317.333 227.2C317.333 230.667 311.599 242.8 310.133 242.267C308.4 241.6 308.667 240 312.267 231.601ZM219.066 230.667C220.266 230.667 221.333 232.534 221.733 235.601C223.067 243.734 219.733 243.333 218 234.934C217.333 231.734 217.6 230.667 219.066 230.667ZM135.467 224.667C140.267 220.267 149.999 220.001 155.199 224.134C158.533 226.8 159.467 226.8 169.733 225.467C196 222.134 204.4 221.201 205.066 221.867C206.533 223.467 203.999 224.267 195.066 225.334C156.401 230.001 159.2 229.334 157.733 233.2C156.933 235.334 154.4 237.867 151.333 239.2C147.066 241.2 145.466 241.334 141.199 240.134C132.133 237.334 129.467 230.267 135.467 224.667ZM273.333 233.867C273.333 228.001 282 226.001 286.8 230.801C289.2 233.201 289.333 233.867 287.6 236.4C285.466 239.734 278.133 241.067 275.199 238.533C274.133 237.733 273.333 235.6 273.333 233.867ZM283.866 231.867C281.333 230.267 279.467 230.401 277.733 232.134C275.733 234.134 277.067 237.334 280 237.334C281.333 237.334 283.066 236.4 284.133 235.2C285.466 233.467 285.466 232.934 283.866 231.867ZM153.333 230C153.333 224 144.133 221.867 138.933 226.667C135.599 229.867 135.6 230.001 137.333 233.334C140.667 239.6 153.333 236.933 153.333 230ZM146.399 227.467C143.066 225.067 145.334 224.534 149.467 226.667C152.933 228.534 152.666 231.467 148.8 234C144.533 236.8 138.666 235.467 138.666 231.467C138.799 228.934 138.933 228.934 140.133 230.934C141.733 233.867 145.733 234 147.866 231.467C149.199 230 148.799 229.2 146.399 227.467ZM35.4668 224.267C37.6004 218.267 45.6001 215.734 52.5332 218.934C62.2663 223.2 53.4664 236.4 42.5332 234C36.9332 232.8 33.8668 228.667 35.4668 224.267ZM228 224C228 222.134 230.001 222.267 245.066 225.2C262.932 228.667 269.332 230.533 269.333 232.267C269.333 233.067 267.999 233.334 266.399 232.934C260.266 231.6 229.073 225.335 228.533 225.334C228.267 225.334 228 224.667 228 224ZM60 226.4C60 224.934 81.9996 225.467 114.399 227.467C124.399 228.133 128 228.934 128 230.134C128 231.467 126 231.734 119.733 231.334C115.067 231.067 101.466 230.4 89.333 230C65.0666 229.067 60.0001 228.534 60 226.4ZM51.5996 227.334C53.4663 222.267 44.9327 219.333 40.666 223.467C38.2661 225.867 38.5331 227.867 41.5996 229.733C44.1328 231.467 50.5326 229.867 51.5996 227.334ZM185.333 152C186 152 186.933 154.667 187.333 158C188.533 165.067 193.333 173.067 199.066 176.934C204.4 180.667 210.133 181.867 237.333 185.334C284.8 191.334 308.133 200.667 313.066 215.601C313.866 218 314 220.267 313.333 220.667C312.8 221.067 312 220.667 311.733 219.733C311.333 218.667 307.866 220 301.6 223.733C295.066 227.6 291.066 229.2 289.333 228.667C287.866 228.134 286.666 227.334 286.666 226.667C286.666 226 290.266 222.4 294.666 218.533C299.066 214.667 302.666 211.2 302.666 210.533C302.663 208.266 277.999 197.467 276.399 199.067C276.267 199.338 276.934 203.737 278 208.801C280.267 219.467 280.533 224.801 278.8 225.867C277.466 226.8 275.2 217.6 273.866 205.867C273.066 199.734 272.4 198.267 269.866 197.334C264.933 195.467 253.733 194.267 252.933 195.601C252.535 196.137 257.601 203.202 264 211.2C270.533 219.2 275.599 226.267 275.199 226.934C273.999 228.8 271.066 225.733 260.933 212.667C255.866 206 251.066 200.267 250.133 199.733C249.332 199.334 243.999 202.401 238.267 206.801C232.667 211.067 227.466 214.667 226.666 214.667C223.333 214.667 226.134 211.733 236 204.4C241.733 200.134 246.533 196 246.666 195.2C246.666 193.6 242.533 192 238.399 192C237.066 192 234.533 194.934 232 199.601C226.8 209.334 223.066 214.267 221.866 212.934C221.333 212.4 221.599 210.534 222.399 208.667C223.733 205.867 223.6 205.334 222 205.334C220.8 205.334 220 206.667 220 208.667C220 210.8 219.2 212 218 212C216.933 212 216 210.801 216 209.334C216 207.201 215.066 206.667 211.333 206.667C206.133 206.667 205.733 207.334 208.8 210.801C209.866 212.001 210.266 213.467 209.6 213.867C208.265 214.666 194.666 202.133 194.666 200C194.666 198.267 198.266 198.267 198.933 200C199.333 201.467 202.266 201.867 210.399 201.601L216 201.334V188.934L208 189.867C202.667 190.534 200.001 190.267 200 189.334C200 188.667 202 188.001 204.399 187.867H208.666L203.467 185.867C192.4 181.867 185.467 173.733 183.467 162.267C182.534 156.933 183.333 152 185.333 152ZM40.9326 224.934C42.5325 223.2 45.3327 224 45.333 226C45.333 227.067 44.1327 228 42.666 228C39.9997 228 39.1996 226.533 40.9326 224.934ZM209.333 221.2C209.333 215.067 217.6 212.534 223.733 216.801C227.199 219.201 227.466 221.733 224.533 224.533C219.067 230.133 209.333 227.867 209.333 221.2ZM222.267 219.467C221.2 216.667 213.6 216.534 212.533 219.334C211.333 222.401 212.933 225.334 215.733 225.334C219.467 225.334 223.2 222 222.267 219.467ZM308.666 214.533C307.199 212.267 304.666 213.334 298.8 218.667C295.6 221.6 293.467 224 294 224C296.401 223.999 309.333 215.733 308.666 214.533ZM192 6.40039C194.267 8.80035 196 11.6008 196 12.8008C196 14.001 197.067 16.6677 198.267 18.8008C202.533 26.0004 200.133 28.6674 180.8 37.6006C165.866 44.4006 161.199 47.4672 146.133 59.8672C125.6 76.667 121.866 79.3335 120.8 77.4668C120 76.1332 129.2 67.8671 143.467 57.0674C147.467 54.1341 150.666 51.4669 150.666 51.2002C150.662 50.5358 118.932 66.6674 109.199 72.4004C105.066 74.6671 98.2665 79.3338 94 82.667L86.1328 88.667L90.3994 89.0674C97.0661 89.734 95.9997 93.334 89.0664 93.334C85.1998 93.334 82.5327 94.2666 80.3994 96.2666C78.6661 97.8666 77.066 98.8004 76.666 98.4004C74.9331 96.8002 78.933 90.7999 86.666 83.4668L94.9326 75.4668L89.1992 70.4004C85.9996 67.7341 82.8004 65.601 82 65.8672C81.3333 66.0005 78.3996 70.2669 75.5996 75.2002C70.9329 83.4669 70.666 84.2674 72.666 87.0674C75.5993 91.334 75.1998 93.7339 70.2666 98.1338C66.4 101.6 65.5998 103.2 64.7998 110.533C64.2665 115.2 63.9999 119.067 64.2666 119.334C64.535 119.599 67.3339 117.465 70.666 114.533L76.5332 109.467L73.333 106C71.0665 103.6 70.533 102.267 71.5996 101.2C72.6662 100.134 73.8663 100.667 76.1328 103.2C77.7328 105.067 79.5999 106.667 80.2666 106.667C80.8006 106.666 83.6004 104.667 86.2666 102.134C94.7999 94.5338 100.933 92.5337 97.1992 98.4004C95.5995 100.8 96.2668 102.134 103.333 110.267C107.599 115.2 111.732 119.867 112.399 120.667C113.199 121.467 113.333 119.733 112.8 116C110.267 99.3343 110.266 98.667 112.399 98.667C114.666 98.667 115.067 100.001 117.467 115.067C119.2 125.334 119.333 125.734 125.066 129.601C128.266 131.867 134.533 135.067 138.933 136.934L146.933 140.134L156 131.733C160.933 127.067 165.066 122.933 165.199 122.533C165.194 121.997 155.463 115.731 143.333 108.533C131.2 101.333 121.334 95.0674 121.333 94.4004C121.333 91.4671 127.733 94.4002 146.666 106C157.999 112.933 167.867 118.667 168.533 118.667C169.201 118.666 174.8 113.866 180.8 108C191.333 97.7336 194.666 95.4671 194.666 98.9336C194.666 99.8669 185.066 109.6 173.333 120.533C161.6 131.467 152 140.667 152 141.067C152.002 141.733 157.735 140.666 165.733 138.533C170.533 137.333 170.8 136.934 170 133.334C168.8 128.134 173.866 123.067 181.066 121.867C186 121.067 186.4 120.533 191.866 109.733C196.133 101.067 197.866 98.6672 199.066 99.8672C200.133 100.934 199.333 103.868 195.6 111.334C187.733 127.334 189.067 128.934 201.467 119.067C207.867 114.134 209.333 112.267 208.666 110.134C206.399 102.001 206.4 100 208.399 100C209.466 100 211.333 102.401 212.666 105.601L214.8 111.067L204.933 121.2C199.466 126.8 194.533 132.533 194.133 134C193.066 137.867 189.066 139.867 179.733 141.2C169.2 142.8 160.666 146 148.133 153.2C139.333 158.133 137.733 158.667 135.066 157.2C131.6 155.334 132.533 152.401 138 148.801C141.6 146.401 142.4 144 139.733 144C138.8 144 133.866 142 128.933 139.467C121.866 135.867 120 135.334 120.533 137.067C123.2 146.134 124 151.067 123.333 153.2C122.4 156.133 131.999 160.667 138.133 160.134C143.199 159.734 146.133 162.667 144.133 166.4C142.399 169.6 139.066 170.933 135.866 170C134.533 169.467 131.999 170.134 130.399 171.2C128.666 172.4 124.666 173.334 121.066 173.334C117.466 173.334 114.666 173.867 114.666 174.4C114.666 175.067 110.133 178.8 104.666 182.667C99.2015 186.532 94.6695 190.131 94.666 190.533C94.7993 190.933 98.1329 193.733 102.399 196.533C120.398 208.799 134.664 220.531 133.467 221.733C132.667 222.533 128.799 220.534 122.666 216.134L113.066 209.067L95.0664 206.533L76.9326 204L68.5332 210.667C63.8665 214.267 59.3327 217.467 58.3994 217.601C53.7333 218.534 58.0001 214 71.333 203.334C79.466 196.934 86.1322 191.334 86.3994 190.667C87.1994 188.4 82.3998 188.401 64 190.801C53.3357 192.134 44.1371 193.333 43.4668 193.334C42.4001 193.334 42.6665 197.467 44.7998 209.733C45.4665 213.733 45.3329 214.667 43.5996 214.667C42.133 214.667 41.0666 212.4 40 207.067C39.2 202.801 38.2667 198 38 196.533L37.333 193.601L26.7998 196.134C21.0665 197.467 13.0664 199.867 9.06641 201.334C0.666595 204.534 2.23129e-05 204.534 0 202.134C0 199.467 16.6661 192.533 30.666 189.467C37.5993 188 51.4663 185.867 61.333 184.667C88.5326 181.334 98.3992 179.2 105.199 174.934C109.999 172 111.467 170.4 111.733 167.067C112 164.801 113.6 161.601 115.467 159.867C119.2 156.401 119.466 152.934 116.8 139.601C115.2 131.467 114.399 129.867 107.199 122.267C102.799 117.733 97.7334 111.6 96 108.667C94.2676 105.735 92.6681 103.07 92.5332 102.801C91.9999 102.268 82.6687 109.465 82.666 110.533C82.666 110.933 90.2664 120.667 99.333 132C114.8 151.2 117.866 156 114.666 156C113.595 155.994 89.3321 126.933 81.8662 116.667L78.9326 112.801L71.4668 118.4C67.3335 121.467 63.733 125.334 63.333 127.067C62.9331 128.668 62.666 134.801 62.9326 140.667L63.333 151.2L85.333 155.733C105.866 159.867 110.933 161.467 109.066 163.334C108.265 164.134 92.2647 161.333 68.666 156.267L58 154L57.5996 134C57.0663 105.2 60.6665 85.6002 70.7998 62.9336C74.3998 55.2003 80.3999 45.2007 84.2666 41.0674C85.1999 40.134 88.6667 36.267 92 32.667C102.133 21.3337 116.267 12.5336 133.467 6.66699C147.2 2.13382 150.533 3.7341 138.133 9.06738C132.533 11.4674 124.133 15.4672 119.6 18.1338L111.333 22.667L142 22.5332C160.266 22.3999 172.799 22.9339 172.933 23.6006C173.465 25.2005 150.265 26.667 125.199 26.667H107.066L100.933 33.2002C97.5994 36.8001 92.4001 44.5334 89.4668 50.5332L84 61.334L89.4668 66.2666C92.5334 69.0665 95.7331 71.7332 96.5332 72.2666C97.4665 72.7999 101.333 70.9338 105.467 68.1338C115.334 61.0671 134.933 50.8003 153.866 42.667C162.666 38.9337 171.067 34.9339 172.533 33.8672C174 32.8005 176.667 32 178.533 32C181.6 32 181.6 31.8666 179.467 29.4668C178.134 28.0002 177.333 25.334 177.6 23.0674C177.866 20.134 179.2 18.8003 183.733 16.667L189.6 14L188 2L192 6.40039ZM178.933 144C181.066 144 181.2 144.4 179.866 146.934C178.266 149.867 178.133 149.867 185.066 147.067C185.866 146.667 186.666 147.333 186.666 148.533C186.666 149.867 185.466 150.667 183.6 150.667C178.933 150.667 176.8 153.867 171.467 168.667C159.334 202.933 152.533 219.066 150.267 218.267C149.467 218 148.8 216.8 149.066 215.867C149.733 213.334 158.266 190.267 160.666 184.934C162.533 180.8 169.2 163.333 174 150.267C175.733 145.867 177.066 144 178.933 144ZM90.666 193.334C90.2651 193.468 88.2658 194.801 86.2666 196.533L82.3994 199.601L90.1328 200.533C94.3994 201.067 99.4663 201.733 101.333 202.267C103.866 202.8 102.933 201.734 98 198.134C94.4 195.467 91.066 193.334 90.666 193.334ZM220 195.2C220 200.134 220.4 201.201 223.066 201.867C226.133 202.667 229.733 199.333 231.467 194.267C232.4 191.2 232.533 191.2 225.733 190.134L220 189.334V195.2ZM181.333 188C184.533 184.8 192.266 184.401 195.199 187.467C197.866 190.133 197.866 191.867 195.066 194.934C192.933 197.334 184.666 198.267 181.866 196.267C178.933 194.267 178.666 190.667 181.333 188ZM192.933 190.134C192.133 188 186.666 187.2 184.933 188.934C182.8 191.067 184.133 194.667 187.066 194.667C191.2 194.667 193.866 192.667 192.933 190.134ZM92.666 186.667C93.7327 185.067 93.1993 185.067 90.666 186.667C89.4662 187.467 89.3333 188 90.2666 188C91.0665 188 92.266 187.334 92.666 186.667ZM128.8 162.801C125.2 158.934 122.933 159.334 120.8 164.267C119.866 166.667 119.333 169.067 119.6 169.601C120.666 171.467 124.933 170.667 128.133 168.134C131.199 165.601 131.333 165.6 128.8 162.801ZM140.133 162.801C137.066 161.068 136.666 161.067 135.6 162.267C135.066 162.667 134.666 164.267 134.666 165.601C134.666 168.534 138.933 168.8 141.199 166.134C142.533 164.534 142.266 163.867 140.133 162.801ZM159.467 155.867C171.733 151.601 173.333 151.334 170.666 153.867C169.599 154.801 165.066 156.934 160.666 158.4C156.266 159.867 151.599 161.467 150.133 162.134C148.4 162.8 147.867 162.534 148.267 161.334C148.533 160.267 153.6 157.867 159.467 155.867ZM148.267 146.667C146.667 146.667 143.067 148.8 140.267 151.467L135.333 156.267L142 152.667C150.666 147.867 151.866 146.667 148.267 146.667ZM188 135.334C190.133 132.801 189.466 132.801 186.133 135.334C184.667 136.4 184.133 137.334 184.933 137.334C185.733 137.334 187.067 136.401 188 135.334ZM188.933 127.334C188.266 125.334 178.267 124.934 176.267 126.934C174.4 128.8 174.133 134.667 176 134.667C178.8 134.667 189.332 128.668 188.933 127.334ZM192.399 34.667C193.599 34.667 194.933 37.6003 196 42.9336C196.933 47.6003 198.266 51.867 199.066 52.667C199.866 53.6003 200 52.9336 199.333 50.9336C197.866 46.1337 201.333 47.4669 208.133 54.5332C220.399 67.1998 228.133 84.8001 226.133 95.4668C225.066 100.933 223.066 101.333 221.866 96.2666C219.333 84.6669 216.666 78.1332 210.666 68.2666C203.866 57.2003 198.666 53.4672 200.666 60.9336C202.666 68.1334 203.732 75.3329 203.199 76.2666C201.199 79.3333 198.666 76.6671 197.199 70.1338C196.399 66.1339 195.199 62.1341 194.666 61.334C193.866 60.134 184.4 62.8007 159.467 71.334C128.4 81.8673 121.066 83.7333 124.8 80C125.47 79.3323 141.068 73.5999 159.333 67.334C177.597 61.0681 192.662 55.7347 192.933 55.4668C193.199 55.2001 192.399 51.334 191.199 46.8008C189.066 38.001 189.333 34.6672 192.399 34.667ZM199.066 80.667C204.266 78.4004 205.466 78.2668 209.866 80C211.733 80.6667 214.133 82.6671 215.333 84.4004C221.333 93.7337 203.466 102.267 195.333 94C193.467 92.2669 192 90.1342 192 89.334C192 86.134 195.066 82.4003 199.066 80.667ZM69.333 89.334C68.6665 89.334 68.0003 89.8667 68 90.5332C68 91.1998 67.5997 92.9333 67.0664 94.2666C66.2665 96.3998 66.3998 96.4005 68.3994 94.8008C70.9327 92.8008 71.4663 89.334 69.333 89.334ZM102.533 79.0674C105.067 77.0674 111.867 76.8003 116.533 78.667C121.6 80.5337 123.199 84.534 120.666 89.334C118.399 93.7337 114.933 95.067 107.333 94.4004C100.533 93.8671 96.2666 88.5338 98.7998 83.8672C99.7331 82.1339 101.333 80.0007 102.533 79.0674ZM209.866 84.4004C206.533 82.0004 203.466 82.2669 199.866 85.2002C197.333 87.3335 196.933 88.2671 198 90.1338C200.133 93.4668 204.533 94.6671 208.133 92.8008C212.133 90.8008 213.066 86.6671 209.866 84.4004ZM114.399 82.1338C110.933 79.7339 109.867 79.6007 105.733 81.6006C101.867 83.4673 101.2 85.7335 103.467 89.2002C106 92.6667 112.133 92.9337 115.066 89.6006C118.133 86.2673 117.866 84.5338 114.399 82.1338ZM126.666 88C122.8 85.4668 128 83.8666 137.333 84.5332C142.133 84.9332 155.067 85.334 166 85.334C185.333 85.334 191.466 86.4002 188.666 89.2002C186.664 91.0667 124.01 92.6667 124 90.8008C124 90.0008 125.066 89.3341 126.399 89.334C128.266 89.334 128.399 89.0667 126.666 88ZM189.333 20C189.333 17.867 185.733 18.4009 183.333 20.8008C180.8 23.4674 181.2 27.1999 184.133 27.7334C185.999 28.1334 189.333 23.0667 189.333 20ZM195.733 23.334C195.333 22.934 194.533 23.6003 194.133 24.9336C193.333 26.8002 193.466 26.9334 194.8 25.7334C195.733 24.8004 196.133 23.7342 195.733 23.334ZM159.866 0C160.4 0 164.933 3.06702 169.866 6.66699C174.666 10.4003 178.666 14.0003 178.666 14.667C178.666 18.5336 173.867 15.8667 157.467 3.2002C156.8 2.66688 158.666 0.000209681 159.866 0Z" fill="#D9D9D9"/>
</svg>
